<?xml version="1.0" encoding="utf-8"?>
<!-- Generator: Adobe Illustrator 18.1.0, SVG Export Plug-In . SVG Version: 6.00 Build 0)  -->
<svg version="1.1" id="twitter" xmlns="http://www.w3.org/2000/svg" xmlns:xlink="http://www.w3.org/1999/xlink" x="0px" y="0px"
	 viewBox="0 0 1200 1200" enable-background="new 0 0 1200 1200" xml:space="preserve">
<circle fill="#0399FF" cx="600" cy="600" r="576"/>
<path fill="#FFFFFF" d="M600,290.4c79.7,0,159.3,0.1,239-0.1c34.3-0.1,64.5,25.4,70.2,60.5c0.7,4.1,0.9,8.3,1,12.4
	c0,157.8,0,315.6,0,473.4c0,36.5-24.4,65.8-60.1,72.3c-3.4,0.6-7,0.6-10.4,0.6c-159.6,0-319.3,0-478.9,0c-34.3,0-64.4-25.9-69.7-60
	c-0.7-4.3-1-8.6-1-12.9c0-158,0-315.9,0-473.9c0-35.9,25.2-65.9,60.6-72c3.1-0.5,6.3-0.5,9.5-0.5C440,290.4,520,290.4,600,290.4z
	 M785.3,554.4c9.4,38,7.3,75.4-6.2,112c-13.6,36.8-36.5,66.7-68.5,89.4c-31.8,22.5-67.3,34.3-106.5,35c-50.7,0.9-95.5-15-132.3-49.4
	c-54.4-50.9-72.5-114.1-57.4-187.3c-2.5-0.2-4.4-0.4-6.4-0.4c-12.3,0-24.7,0-37,0c-8,0-8,0-8,8.1c0,83.3,0.3,166.6-0.2,249.9
	c-0.1,16.3,11.2,26,26,26c140.8-0.2,281.6-0.2,422.4,0c15.8,0,26.1-10.9,26-26c-0.5-83.1-0.2-166.3-0.2-249.4c0-1.3-0.1-2.7,0-4
	c0.1-3.1-1.3-4.6-4.5-4.6c-14.5,0-29,0-43.5,0C788,553.6,787.1,554,785.3,554.4z M599.7,718.4c64.4,0.2,118.6-51.1,118.9-117.8
	c0.3-66.8-53.2-118.5-117.7-119c-65.1-0.5-119.5,51.2-119.4,118.8C481.6,666.7,535.4,718.4,599.7,718.4z M720,421.3
	c0,11.7,0,23.3,0,35c0,0.3,0,0.7,0,1c-1.5,11.6,10.7,23.3,23,23.2c23.7-0.3,47.3,0,71-0.1c13.7-0.1,22.9-9.4,23-23.1
	c0.1-23.8,0.1-47.7,0-71.5c0-13-8.9-22.8-22-23c-24.3-0.4-48.7-0.3-73,0c-13.1,0.2-22.7,11.9-22.1,23.1
	C720.5,397.6,720,409.5,720,421.3z"/>
</svg>
